HIERARCHY
ROOT Hips
{
	OFFSET -0.179506 -22.333345 2.821913
	CHANNELS 6 Xposition Yposition Zposition Zrotation Yrotation Xrotation 
	JOINT LeftUpLeg
	{
		OFFSET 6.951974 -9.140623 -0.681533
		CHANNELS 3 Zrotation Yrotation Xrotation
		JOINT LeftLeg
		{
			OFFSET 3.427654 -37.519855 -0.449580
			CHANNELS 3 Zrotation Yrotation Xrotation
			JOINT LeftFoot
			{
				OFFSET -1.359570 -39.796059 -4.369333
				CHANNELS 3 Zrotation Yrotation Xrotation
				JOINT LeftToe
				{
					OFFSET 2.635814 -5.579078 11.928840
					CHANNELS 3 Zrotation Yrotation Xrotation
					End Site
					{
						OFFSET 0.000000 0.000000 0.000000
					}
				}
			}
		}
	}
	JOINT RightUpLeg
	{
		OFFSET -6.767048 -9.052170 -0.431982
		CHANNELS 3 Zrotation Yrotation Xrotation
		JOINT RightLeg
		{
			OFFSET -3.829005 -38.256897 -0.885003
			CHANNELS 3 Zrotation Yrotation Xrotation
			JOINT RightFoot
			{
				OFFSET 1.577377 -39.841461 -4.231180
				CHANNELS 3 Zrotation Yrotation Xrotation
				JOINT RightToe
				{
					OFFSET -2.537174 -4.814398 12.334795
					CHANNELS 3 Zrotation Yrotation Xrotation
					End Site
					{
						OFFSET 0.000000 0.000000 0.000000
					}
				}
			}
		}
	}
	JOINT Spine
	{
		OFFSET -0.253288 10.896323 -2.669631
		CHANNELS 3 Zrotation Yrotation Xrotation
		JOINT Spine1
		{
			OFFSET 0.548704 13.518043 0.109247
			CHANNELS 3 Zrotation Yrotation Xrotation
			JOINT Spine2
			{
				OFFSET 0.145701 5.292222 2.542457
				CHANNELS 3 Zrotation Yrotation Xrotation
				JOINT Neck
				{
					OFFSET -0.277840 21.387037 -4.285703
					CHANNELS 3 Zrotation Yrotation Xrotation
					JOINT Head
					{
						OFFSET 0.515184 6.496960 5.134897
						CHANNELS 3 Zrotation Yrotation Xrotation
						End Site
						{
							OFFSET 0.000000 0.000000 0.000000
						}
					}
				}
				JOINT LeftShoulder
				{
					OFFSET 7.884473 12.174932 -3.408961
					CHANNELS 3 Zrotation Yrotation Xrotation
					JOINT LeftArm
					{
						OFFSET 9.097692 3.046888 -0.886815
						CHANNELS 3 Zrotation Yrotation Xrotation
						JOINT LeftForeArm
						{
							OFFSET 25.961220 -1.277207 -2.745643
							CHANNELS 3 Zrotation Yrotation Xrotation
							JOINT LeftHand
							{
								OFFSET 24.923361 0.898606 -0.117091
								CHANNELS 3 Zrotation Yrotation Xrotation
								End Site
								{
									OFFSET 0.000000 0.000000 0.000000
								}
							}
						}
					}
				}
				JOINT RightShoulder
				{
					OFFSET -8.175920 11.883285 -3.861528
					CHANNELS 3 Zrotation Yrotation Xrotation
					JOINT RightArm
					{
						OFFSET -9.601238 3.255117 -0.914307
						CHANNELS 3 Zrotation Yrotation Xrotation
						JOINT RightForeArm
						{
							OFFSET -25.374195 -1.332924 -2.140099
							CHANNELS 3 Zrotation Yrotation Xrotation
							JOINT RightHand
							{
								OFFSET -25.529810 0.777228 -0.555919
								CHANNELS 3 Zrotation Yrotation Xrotation
								End Site
								{
									OFFSET 0.000000 0.000000 0.000000
								}
							}
						}
					}
				}
			}
		}
	}
}
MOTION
Frames: 7
Frame Time: 0.033333
60.155273 53.983131 92.582108 -176.354163 -0.041824 89.488284 3.445421 0.926770 2.958510 -4.731124 -7.351998 -3.989019 2.342497 8.725371 -7.081459 nan nan nan -5.119365 -3.338502 1.071960 3.839195 -0.833264 -1.967654 4.740828 -6.304676 -4.840980 nan nan nan -0.561125 1.453763 2.696108 1.658996 -3.605866 5.234503 1.221899 -1.568810 -3.435347 1.090106 5.250531 -3.093466 5.487691 3.301387 10.876688 -29.949680 -1.578904 5.190719 -53.819711 -4.924241 13.684249 4.720627 -21.192189 10.456580 -11.942486 -15.232758 1.340415 30.704743 2.042942 5.463208 52.210330 3.009467 11.866723 -13.421719 22.023624 -3.897323 10.543451 9.234359 -3.850393 
60.154358 53.939278 92.538094 -176.318850 -0.011509 89.460262 3.424715 1.166516 2.912522 -4.611018 -7.153704 -3.829899 2.015591 8.492014 -6.910609 nan nan nan -5.061535 -3.227485 1.258474 3.537255 -0.773345 -2.183215 4.892294 -5.975538 -4.735958 nan nan nan -0.529984 1.501602 2.515184 1.847122 -3.724543 5.878694 1.141366 -1.601505 -3.184621 -0.117520 2.439921 0.065706 4.155074 0.600707 7.228257 -29.407583 -1.515854 4.662065 -54.592940 -5.162506 14.187813 5.140349 -21.111162 9.363913 -12.951373 -14.885051 2.329127 29.942049 2.477988 4.694091 53.066179 2.564298 11.850515 -13.794813 22.218150 -4.144879 10.961566 9.163500 -3.227280 
60.150509 53.877201 92.543907 -176.246957 0.023650 89.468576 3.460293 1.167502 2.798100 -4.656783 -7.035278 -3.698162 1.964824 8.475058 -6.900152 nan nan nan -5.002822 -3.187860 1.295397 3.443109 -0.713164 -2.295527 4.929667 -5.959909 -4.703882 nan nan nan -0.578667 1.621620 2.504639 1.900951 -3.621280 5.856063 1.288637 -1.774773 -2.961108 -0.048166 2.423547 0.029987 4.058336 0.595093 6.859285 -29.259007 -1.692739 4.808624 -54.930761 -5.281326 14.125607 5.286062 -21.115621 9.327417 -12.895693 -14.803734 2.072314 29.617685 2.466690 4.677780 53.301661 2.562678 11.804182 -13.913857 22.321116 -4.134010 10.916117 9.073628 -3.507138 
60.149090 53.823551 92.555435 -176.254727 0.056256 89.510287 3.482474 1.155230 2.703364 -4.691232 -6.990388 -3.633543 1.946540 8.465835 -6.923420 nan nan nan -4.957011 -3.164674 1.210831 3.447055 -0.696385 -2.279749 4.955223 -5.971596 -4.721426 nan nan nan -0.587074 1.703407 2.519482 1.921409 -3.525543 5.786415 1.353641 -1.887498 -2.810548 -0.053606 2.475725 -0.103314 4.048444 0.587302 6.738992 -29.131088 -1.736734 4.881471 -55.157459 -5.316353 14.120142 5.381511 -21.133666 9.404816 -12.802693 -14.797021 1.925103 29.468830 2.406328 4.668753 53.387180 2.573647 11.760423 -13.905141 22.394878 -4.056740 10.875440 9.033119 -3.652124 
60.162773 53.789791 92.571579 -176.272978 0.046434 89.649846 3.546205 1.237218 2.569191 -4.482380 -6.841663 -4.193459 2.328876 8.111788 -6.304933 nan nan nan -5.001065 -3.224539 0.965754 3.621735 -0.744253 -2.201136 5.236138 -6.076971 -4.782268 nan nan nan -0.617831 1.685465 2.465475 1.899459 -3.578315 5.821049 1.384666 -1.762146 -2.990211 -0.315427 2.124847 0.110363 4.284522 0.764601 6.498711 -28.982858 -1.715765 4.933476 -55.358931 -5.167710 14.178760 5.641024 -21.057981 9.780080 -13.413316 -15.256711 1.955791 29.323318 2.320228 4.658728 53.678146 2.384444 11.681137 -14.183138 22.432855 -4.100055 11.416927 9.150220 -3.699472 
60.177864 53.735981 92.573395 -176.239183 0.243722 89.928497 3.919547 1.348896 2.129185 -4.903287 -7.014975 -3.993287 2.847374 8.361913 -6.253132 nan nan nan -4.996909 -3.515500 0.349596 4.705471 -0.889461 -0.944599 2.416996 -6.851452 -6.193617 nan nan nan -0.192981 1.353986 2.193289 1.824629 -3.752085 6.221506 1.219094 -1.365277 -3.497121 -0.779792 1.848969 0.543232 3.998618 0.540246 6.667788 -28.786516 -1.566009 5.069386 -55.627709 -5.012864 14.109120 6.032039 -21.009923 10.593630 -14.801521 -16.234087 1.805545 28.849650 2.250418 4.937025 54.487117 2.291448 11.164191 -14.794161 22.547143 -3.585280 12.613433 9.231496 -4.222772 
60.176853 53.698219 92.572517 -176.273913 0.197305 90.022388 3.851068 1.357485 1.991541 -4.939745 -6.989507 -3.975159 2.828278 8.445557 -6.207153 nan nan nan -5.112087 -3.601415 0.113718 4.838572 -1.000708 -0.751282 2.444488 -6.957548 -6.156292 nan nan nan -0.120733 1.206737 2.162022 1.713226 -3.825587 6.228966 1.115429 -1.199818 -3.447369 -0.709337 1.838137 0.217584 3.948668 0.528600 6.776222 -28.568650 -1.348191 5.041489 -55.730859 -4.995448 14.115646 5.970313 -21.102106 10.883360 -14.678701 -16.457684 1.668049 28.693618 2.210125 4.984355 54.795859 2.335700 11.184332 -14.872228 22.434568 -3.436273 12.555803 9.209951 -4.514455 
